<svg width="212" height="212" viewBox="0 0 212 212" fill="none" xmlns="http://www.w3.org/2000/svg">
<path d="M44.4005 107.472L41.5664 97.7899C41.308 96.9066 41.6082 95.9542 42.3268 95.3786L49.3628 89.7445L49.1559 80.7343C49.1347 79.8141 49.6714 78.972 50.5145 78.6019L58.7661 74.9817L60.8873 66.1926C61.1039 65.2955 61.8413 64.6183 62.7544 64.4798L71.6957 63.1208L76.0121 55.2662C76.4543 54.4616 77.337 54.0022 78.2495 54.1017L87.2058 55.0789L93.4381 48.5721C94.0731 47.9093 95.0445 47.6936 95.9005 48.0257L104.256 51.2673L111.978 46.5597C112.766 46.0791 113.767 46.1232 114.509 46.6712L121.784 52.0399L130.431 49.5077C131.315 49.2492 132.267 49.5492 132.843 50.2676L138.476 57.3023L147.487 57.0943C148.407 57.073 149.249 57.6095 149.619 58.4525L153.668 67.6815C154.033 68.4604 153.936 69.4104 153.351 70.1071L114.405 116.522L123.303 118.09C123.897 118.194 124.425 118.531 124.77 119.024C125.116 119.518 125.251 120.129 125.145 120.723C124.962 121.757 124.673 122.758 124.29 123.714L128.491 135.255C131.296 135.232 133.944 136.954 134.957 139.737L139.716 152.812C140.145 153.991 139.537 155.295 138.359 155.724L129.821 158.832C128.642 159.261 127.338 158.654 126.909 157.475L122.15 144.399C121.137 141.617 122.058 138.595 124.222 136.809L121.21 128.534C119.605 130.236 117.61 131.575 115.349 132.398C113.089 133.221 110.699 133.478 108.376 133.206L109.52 136.349C112.325 136.326 114.973 138.048 115.986 140.831L120.746 153.907C121.175 155.085 120.567 156.389 119.388 156.818L110.85 159.926C109.671 160.355 108.368 159.748 107.939 158.569L103.179 145.493C102.167 142.711 103.088 139.689 105.251 137.904L102.919 131.495C102.011 131.009 101.146 130.428 100.34 129.754C99.8782 129.367 99.5888 128.812 99.5361 128.211C99.4833 127.611 99.6712 127.014 100.059 126.552L105.867 119.63L46.1993 109.117C45.3074 108.96 44.624 108.299 44.4005 107.472ZM86.4201 59.5629L79.2634 58.7821L75.8005 65.084L102.1 102.639L86.4201 59.5629ZM148.964 68.2685L146.07 61.6709L138.867 61.8371L119.486 103.399L148.964 68.2685ZM118.859 55.5281L113.039 51.2326L106.896 54.9778L110.895 100.691L118.859 55.5281ZM60.3306 79.256L53.7328 82.1506L53.8979 89.3525L95.4594 108.727L60.3306 79.256Z" fill="#070B4A"/>
<ellipse cx="14.8353" cy="8.58756" rx="14.8353" ry="8.58756" transform="matrix(-0.924892 0.379479 0.379616 0.925452 122.621 111.08)" fill="#E70614"/>
</svg>
